<?xml version="1.0" encoding="UTF-8"?>
<svg width="50" height="50"  id="Layer_2" data-name="Layer 2" xmlns="http://www.w3.org/2000/svg" xmlns:xlink="http://www.w3.org/1999/xlink" viewBox="0 0 29.36 33.82">
  <defs>
    <style>
      .cls-1 {
        stroke: url(#linear-gradient-4);
      }

      .cls-1, .cls-2, .cls-3, .cls-4, .cls-5, .cls-6, .cls-7, .cls-8, .cls-9 {
        fill: none;
        stroke-linecap: round;
        stroke-miterlimit: 10;
        stroke-width: 2px;
      }

      .cls-2 {
        stroke: url(#linear-gradient-2);
      }

      .cls-3 {
        stroke: url(#linear-gradient-3);
      }

      .cls-4 {
        stroke: url(#linear-gradient-7);
      }

      .cls-5 {
        stroke: url(#linear-gradient-9);
      }

      .cls-6 {
        stroke: url(#linear-gradient-8);
      }

      .cls-7 {
        stroke: url(#linear-gradient);
      }

      .cls-8 {
        stroke: url(#linear-gradient-5);
      }

      .cls-9 {
        stroke: url(#linear-gradient-6);
      }
    </style>
    <linearGradient id="linear-gradient" x1="9.54" y1="-2.01" x2="17.88" y2="12.45" gradientUnits="userSpaceOnUse">
      <stop offset="0" stop-color="#3a67b1"/>
      <stop offset=".04" stop-color="#305b99"/>
      <stop offset=".11" stop-color="#264d7c"/>
      <stop offset=".17" stop-color="#1e4367"/>
      <stop offset=".24" stop-color="#193d5b"/>
      <stop offset=".3" stop-color="#183c57"/>
    </linearGradient>
    <linearGradient id="linear-gradient-2" x1="5.64" y1="11.63" x2="11.84" y2="22.37" xlink:href="#linear-gradient"/>
    <linearGradient id="linear-gradient-3" x1="13.49" y1="6.84" x2="15.99" y2="11.17" xlink:href="#linear-gradient"/>
    <linearGradient id="linear-gradient-4" x1="26.29" y1="32.8" x2="7.14" y2="21.74" xlink:href="#linear-gradient"/>
    <linearGradient id="linear-gradient-5" x1="24.2" y1="19" x2="17.28" y2="15" xlink:href="#linear-gradient"/>
    <linearGradient id="linear-gradient-6" x1="12.74" y1="7.54" x2="18.92" y2="18.25" xlink:href="#linear-gradient"/>
    <linearGradient id="linear-gradient-7" x1="13.1" y1="4.16" x2="18.56" y2="13.62" xlink:href="#linear-gradient"/>
    <linearGradient id="linear-gradient-8" x1="13.36" y1="16.12" x2="17.66" y2="23.56" xlink:href="#linear-gradient"/>
    <linearGradient id="linear-gradient-9" x1="12.99" y1="22.12" x2="16.82" y2="28.77" xlink:href="#linear-gradient"/>
  </defs>
  <g id="Layer_1-2" data-name="Layer 1">
    <g>
      <path class="cls-7" d="m27.55,1H7.55h.45c-3.87,0-7,3.58-7,8s3.13,8,7,8"/>
      <line class="cls-2" x1="8.74" y1="23" x2="8.74" y2="11"/>
      <line class="cls-3" x1="11.74" y1="9" x2="17.74" y2="9"/>
      <path class="cls-1" d="m1.91,32.82h20-.55c3.87,0,7-3.58,7-8s-3.13-8-7-8"/>
      <line class="cls-8" x1="20.74" y1="23" x2="20.74" y2="11"/>
      <polyline class="cls-9" points="8.74 11 14.74 19 20.74 11"/>
      <polyline class="cls-4" points="10.18 7 14.74 14 19.3 7"/>
      <polyline class="cls-6" points="11.24 18.5 14.74 23.5 18.24 18.5"/>
      <path class="cls-5" d="m11.74,24v2-.28c0,1.42,1.34,2.56,3,2.56s3-1.15,3-2.56v.28-2"/>
    </g>
  </g>
</svg>